#!OML:ASF X:\für Bonn\!DataBase\2005_08_12_Daniel\c3d\Daniel.ASF
:FULLY-SPECIFIED
:DEGREES
62
root 3.69219 15.4002 -5.19245 -1257.41 126.395 182.62
lowerback 62.1249 1.77675 -5.80871
upperback 12.6104 -0.204559 -4.22171
thorax -7.16722 0.893523 -2.23338
lowerneck 8.39362 2.79266 -4.19531
upperneck 6.92143 3.37455 2.20161
head 0.643711 1.61016 1.31488
rclavicle -7.95139e-015 1.15693e-013
rhumerus -351.435 20.7078 274.484
rradius 38.1359
rwrist 13.5509
rhand -16.8962 737.596
rfingers 7.12502
rthumb 9.33549 707.822
lclavicle -7.95139e-015 1.15693e-013
lhumerus -351.623 -11.9372 -290.699
lradius 45.9988
lwrist -11.1134
lhand -14.2413 -720.502
lfingers 7.12502
lthumb 11.8965 -330.86
rfemur -32.1304 -20.7643 11.9932
rtibia 86.0257
rfoot 351.889 25.0007
rtoes 14.5647
lfemur -47.1462 -1.19278 -18.3781
ltibia 69.697
lfoot -20.757 -13.4148
ltoes 3.16555
63
root 3.81336 15.345 -5.17822 -1257.69 126.969 182.076
lowerback 62.7987 1.69793 -5.6348
upperback 12.547 -0.260984 -4.31378
thorax -7.25583 0.882627 -2.40849
lowerneck 8.31364 2.83667 -4.11802
upperneck 7.06788 3.44299 2.09666
head 0.703794 1.64381 1.26936
rclavicle 4.21423e-014 -1.1609e-013
rhumerus -349.998 21.2068 274.787
rradius 37.6301
rwrist 13.6886
rhand -17.0627 737.469
rfingers 7.12502
rthumb 9.17485 707.689
lclavicle 4.21423e-014 -1.1609e-013
lhumerus -350.108 -12.2929 -291.599
lradius 46.1365
lwrist -11.0389
lhand -14.546 -720.444
lfingers 7.12502
lthumb 11.6026 -330.785
rfemur -33.856 -21.6406 12.6717
rtibia 85.8725
rfoot 351.644 25.3971
rtoes 15.3305
lfemur -47.4911 -1.0437 -18.2338
ltibia 70.9512
lfoot -21.8861 -13.1042
ltoes 2.98598
64
root 3.93635 15.2926 -5.16193 -1257.92 127.546 181.574
lowerback 63.4211 1.62169 -5.48081
upperback 12.5117 -0.31743 -4.40405
thorax -7.30771 0.870616 -2.57057
lowerneck 8.19573 2.86346 -4.02794
upperneck 7.21632 3.49153 1.98372
head 0.771648 1.66788 1.22046
rclavicle -3.57812e-014 7.71285e-014
rhumerus -348.502 21.7175 275.136
rradius 37.1265
rwrist 13.7894
rhand -17.2178 737.329
rfingers 7.12502
rthumb 9.02517 707.542
lclavicle -3.57812e-014 7.71285e-014
lhumerus -348.525 -12.5365 -292.483
lradius 46.2049
lwrist -10.9099
lhand -14.9024 -720.421
lfingers 7.12502
lthumb 11.2589 -330.743
rfemur -35.6883 -22.4918 13.4378
rtibia 85.7066
rfoot 351.266 25.7016
rtoes 15.4792
lfemur -47.7968 -0.914228 -18.1146
ltibia 72.1465
lfoot -22.9969 -12.7964
ltoes 2.84446
65
root 4.0593 15.242 -5.14507 -1258.16 128.116 181.059
lowerback 64.0604 1.54366 -5.29887
upperback 12.4508 -0.363353 -4.50298
thorax -7.38698 0.864461 -2.75992
lowerneck 8.17892 2.88148 -3.84991
upperneck 7.30385 3.53039 1.88542
head 0.805443 1.68941 1.15938
rclavicle 3.33958e-014 1.47101e-014
rhumerus -347.005 22.1979 275.486
rradius 36.6119
rwrist 13.9067
rhand -17.4514 737.14
rfingers 7.12502
rthumb 8.79975 707.343
lclavicle 3.33958e-014 1.47101e-014
lhumerus -346.965 -12.8316 -293.456
lradius 46.3078
lwrist -10.7258
lhand -15.2869 -720.347
lfingers 7.12502
lthumb 10.8881 -330.649
rfemur -37.634 -23.3926 14.3236
rtibia 85.5751
rfoot 350.608 25.9239
rtoes 14.5638
lfemur -48.0776 -0.825178 -17.9725
ltibia 73.3011
lfoot -24.0631 -12.4802
ltoes 2.69929
66
root 4.18321 15.1915 -5.1266 -1258.44 128.692 180.551
lowerback 64.7016 1.47973 -5.14634
upperback 12.417 -0.402541 -4.58377
thorax -7.42938 0.859812 -2.91867
lowerneck 8.09815 2.89571 -3.63898
upperneck 7.43628 3.57123 1.72511
head 0.86537 1.71231 1.07501
rclavicle 3.18055e-014 2.70347e-014
rhumerus -345.437 22.6253 275.842
rradius 36.035
rwrist 14.1426
rhand -17.636 737.001
rfingers 7.12502
rthumb 8.62164 707.197
lclavicle 3.18055e-014 2.70347e-014
lhumerus -345.385 -12.9665 -294.375
lradius 46.3556
lwrist -10.6194
lhand -15.7264 -720.355
lfingers 7.12502
lthumb 10.4641 -330.635
rfemur -39.5868 -24.3044 15.2929
rtibia 85.455
rfoot 349.779 26.0892
rtoes 12.7493
lfemur -48.2685 -0.732286 -17.8346
ltibia 74.4271
lfoot -25.1324 -12.1402
ltoes 2.5716
67
root 4.30688 15.1387 -5.10669 -1258.74 129.265 180.051
lowerback 65.3306 1.43165 -4.99895
upperback 12.4052 -0.415971 -4.62759
thorax -7.44054 0.863567 -3.04363
lowerneck 8.04282 2.91157 -3.53913
upperneck 7.4984 3.60239 1.62595
head 0.896465 1.72821 1.02797
rclavicle 4.45278e-014 5.1684e-015
rhumerus -343.825 23.0941 276.318
rradius 35.4635
rwrist 14.3833
rhand -17.8384 736.826
rfingers 7.12502
rthumb 8.42632 707.015
lclavicle 4.45278e-014 5.1684e-015
lhumerus -343.783 -13.0395 -295.268
lradius 46.3928
lwrist -10.4634
lhand -16.1542 -720.325
lfingers 7.12502
lthumb 10.0514 -330.585
rfemur -41.5416 -25.1894 16.3539
rtibia 85.3066
rfoot 349.06 26.1648
rtoes 11.1842
lfemur -48.4119 -0.645401 -17.7025
ltibia 75.5573
lfoot -26.1741 -11.8098
ltoes 2.49212
68
root 4.43166 15.081 -5.08563 -1259.04 129.841 179.581
lowerback 65.9628 1.38224 -4.86114
upperback 12.4029 -0.432677 -4.66556
thorax -7.43667 0.865579 -3.1561
lowerneck 7.91887 2.92486 -3.50278
upperneck 7.60014 3.62798 1.53873
head 0.949981 1.7397 0.997326
rclavicle -2.3059e-014 2.38542e-015
rhumerus -342.173 23.5538 276.829
rradius 34.8518
rwrist 14.5973
rhand -17.9885 736.667
rfingers 7.12502
rthumb 8.28142 706.849
lclavicle -2.3059e-014 2.38542e-015
lhumerus -342.173 -12.9902 -296.102
lradius 46.3714
lwrist -10.3582
lhand -16.6173 -720.292
lfingers 7.12502
lthumb 9.60461 -330.531
rfemur -43.4885 -26.0783 17.4786
rtibia 85.1288
rfoot 348.56 26.2056
rtoes 10.4597
lfemur -48.5194 -0.567243 -17.5868
ltibia 76.6969
lfoot -27.2017 -11.47
ltoes 2.47036
69
root 4.55704 15.0192 -5.06304 -1259.34 130.403 179.125
lowerback 66.5608 1.31391 -4.70438
upperback 12.4262 -0.452514 -4.71784
thorax -7.4023 0.868102 -3.28929
lowerneck 7.72829 2.93719 -3.45731
upperneck 7.72816 3.65385 1.49505
head 1.0219 1.75166 0.980459
rclavicle 5.88403e-014 -1.14898e-013
rhumerus -340.496 23.8845 277.267
rradius 34.1811
rwrist 14.9771
rhand -18.0663 736.523
rfingers 7.12502
rthumb 8.20637 706.702
lclavicle 5.88403e-014 -1.14898e-013
lhumerus -340.505 -12.8536 -296.957
lradius 46.2971
lwrist -10.3288
lhand -17.012 -720.369
lfingers 7.12502
lthumb 9.22374 -330.591
rfemur -45.4302 -26.9485 18.6816
rtibia 84.91
rfoot 348.34 26.2448
rtoes 10.7615
lfemur -48.6309 -0.516894 -17.4826
ltibia 77.8658
lfoot -28.2449 -11.1156
ltoes 2.29387
70
root 4.6826 14.951 -5.03893 -1259.64 130.964 178.676
lowerback 67.1946 1.22888 -4.53533
upperback 12.4274 -0.489373 -4.79613
thorax -7.39149 0.866252 -3.45129
lowerneck 7.58084 2.95713 -3.36888
upperneck 7.82995 3.69091 1.44514
head 1.07923 1.7702 0.953286
rclavicle 1.27222e-014 -6.16232e-014
rhumerus -338.824 24.2253 277.681
rradius 33.5184
rwrist 15.3401
rhand -18.068 736.333
rfingers 7.12502
rthumb 8.20469 706.513
lclavicle 1.27222e-014 -6.16232e-014
lhumerus -338.86 -12.6864 -297.871
lradius 46.2091
lwrist -10.3119
lhand -17.3926 -720.42
lfingers 7.12502
lthumb 8.85653 -330.626
rfemur -47.3783 -27.7644 19.9542
rtibia 84.6787
rfoot 348.35 26.3286
rtoes 11.4295
lfemur -48.7269 -0.545376 -17.3712
ltibia 79.0602
lfoot -29.3148 -10.7159
ltoes 2.31672
71
root 4.80943 14.8763 -5.01248 -1259.95 131.531 178.211
lowerback 67.8035 1.13726 -4.35119
upperback 12.4208 -0.523724 -4.87727
thorax -7.38811 0.864985 -3.62308
lowerneck 7.43437 2.97594 -3.27054
upperneck 7.9636 3.72755 1.3902
head 1.14683 1.78862 0.923495
rclavicle 3.18055e-015 6.08281e-014
rhumerus -337.182 24.5516 278.083
rradius 32.8361
rwrist 15.7853
rhand -18.0419 736.13
rfingers 7.12502
rthumb 8.22992 706.31
lclavicle 3.18055e-015 6.08281e-014
lhumerus -337.226 -12.4434 -298.756
lradius 46.0501
lwrist -10.356
lhand -17.7561 -720.518
lfingers 7.12502
lthumb 8.50571 -330.71
rfemur -49.3408 -28.5186 21.3188
rtibia 84.4324
rfoot 348.453 26.462
rtoes 12.363
lfemur -48.8236 -0.595567 -17.2425
ltibia 80.2849
lfoot -30.4371 -10.338
ltoes 2.32978
72
root 4.93606 14.7982 -4.9843 -1260.24 132.07 177.799
lowerback 68.4245 1.02309 -4.16573
upperback 12.4239 -0.579428 -4.98105
thorax -7.37218 0.858263 -3.81209
lowerneck 7.27338 2.99621 -3.19908
upperneck 8.0734 3.76202 1.39175
head 1.20799 1.80585 0.916014
rclavicle 1.43125e-014 -8.84592e-014
rhumerus -335.582 24.7391 278.365
rradius 32.1537
rwrist 16.4579
rhand -17.9573 735.966
rfingers 7.12502
rthumb 8.31152 706.15
lclavicle 1.43125e-014 -8.84592e-014
lhumerus -335.521 -12.1163 -299.637
lradius 45.775
lwrist -10.3874
lhand -18.0311 -720.745
lfingers 7.12502
lthumb 8.24035 -330.925
rfemur -51.2763 -29.2425 22.7055
rtibia 84.1466
rfoot 348.771 26.6783
rtoes 13.5102
lfemur -48.9158 -0.652931 -17.1554
ltibia 81.5164
lfoot -31.5224 -10.0066
ltoes 2.40822
73
root 5.06369 14.7177 -4.95385 -1260.56 132.623 177.372
lowerback 69.0554 0.932275 -4.00034
upperback 12.4212 -0.618872 -5.05671
thorax -7.35632 0.855357 -3.96814
lowerneck 7.12349 3.0236 -3.14848
upperneck 8.16785 3.80445 1.37535
head 1.26248 1.82631 0.905991
rclavicle 2.8625e-014 1.07344e-014
rhumerus -333.977 24.985 278.696
rradius 31.4869
rwrist 17.0628
rhand -17.868 735.804
rfingers 7.12502
rthumb 8.3977 705.99
lclavicle 2.8625e-014 1.07344e-014
lhumerus -333.839 -11.6678 -300.446
lradius 45.4442
lwrist -10.5495
lhand -18.2838 -720.979
lfingers 7.12502
lthumb 7.99641 -331.15
rfemur -53.2071 -29.9031 24.1884
rtibia 83.8007
rfoot 349.174 27.0114
rtoes 14.2628
lfemur -48.9802 -0.681047 -17.056
ltibia 82.7423
lfoot -32.5897 -9.69794
ltoes 2.46316
